# xmcd CD database file
#
# Track frame offsets:
#	150
#	14753
#	31118
#	78693
#	102838
#	115158
#	152895
#	175192
#	203292
#	241654
#	257707
#	279442
#	326483
#
# Disc length: 4775 seconds
#
# Revision: 0
# Processed by: cddbd v1.4PL0 Copyright (c) Steve Scherf et al.
# Submitted via: CDex 1.50
#
DISCID=a012a50d
DTITLE=Cesaria Evora - Venom and Honey
DYEAR=2002
DGENRE=Blues
TTITLE0=Cabo Verde (Malaquias Costa)
TTITLE1=Mar Azul (B.Leza)
TTITLE2=Carnaval De Sao Vicente (Jazzy Carnaval Mix)
TTITLE3=Cize (Morgadinho)
TTITLE4=Estanhadinha (Frank Cavaquim)
TTITLE5=Sangue De Belrona (Main Pass)
TTITLE6=Belga (Mendes Carvalho)
TTITLE7=Cretcheu Di Ceu (Morgadinho)
TTITLE8=Sangue De Belrona (Body and Soul Vocal Mix)
TTITLE9=Cinturao Tem Mel (Dansa Tcha Tcha Tcha) (Gregorio Goncalves)
TTITLE10=Separacao (Ramiro Mendez)
TTITLE11=Carnaval De Sao Vicente (Body and Soul Vocal Mix)
TTITLE12=Sangue De Belrona (Spiritual Wave Mix)
EXTD=YEAR: 2002
EXTT0=
EXTT1=
EXTT2=
EXTT3=
EXTT4=
EXTT5=
EXTT6=
EXTT7=
EXTT8=
EXTT9=
EXTT10=
EXTT11=
EXTT12=
PLAYORDER=
